<svg width="807" height="549" viewBox="0 0 807 549" fill="none" xmlns="http://www.w3.org/2000/svg">
<circle cx="561" cy="303" r="246" fill="#2BB32A"/>
<g filter="url(#filter0_d_1_61)">
<g filter="url(#filter1_b_1_61)">
<rect x="104.118" y="10" width="551.298" height="348.188" rx="32" transform="rotate(15 104.118 10)" fill="url(#paint0_linear_1_61)" fill-opacity="0.37"/>
<rect x="104.118" y="10" width="551.298" height="348.188" rx="32" transform="rotate(15 104.118 10)" stroke="url(#paint1_linear_1_61)" stroke-opacity="0.5" stroke-width="2"/>
</g>
<path d="M95.9206 269.188L98.5658 259.316L100.364 259.798L102.888 268.069L102.915 268.076L104.813 260.99L106.49 261.439L103.845 271.311L102.047 270.829L99.5367 262.562L99.5097 262.555L97.611 269.641L95.9206 269.188ZM107.569 272.454C106.866 272.265 106.362 271.928 106.058 271.44C105.765 270.946 105.707 270.37 105.883 269.712C106.103 268.892 106.592 268.346 107.35 268.076C108.109 267.806 109.079 267.829 110.26 268.145L111.247 268.41C111.339 268.067 111.364 267.794 111.322 267.589C111.291 267.378 111.182 267.209 110.994 267.081C110.815 266.956 110.541 266.844 110.171 266.745C109.72 266.624 109.239 266.544 108.729 266.503C108.227 266.465 107.74 266.48 107.268 266.547L107.403 265.177C107.908 265.129 108.454 265.13 109.039 265.181C109.625 265.231 110.197 265.331 110.756 265.481C111.468 265.672 112.004 265.907 112.364 266.187C112.733 266.47 112.953 266.838 113.025 267.292C113.096 267.746 113.043 268.307 112.864 268.974L111.676 273.409L110.093 272.985L110.297 272.17L110.27 272.163C109.952 272.377 109.539 272.513 109.031 272.57C108.525 272.618 108.038 272.579 107.569 272.454ZM108.512 271.315C108.845 271.404 109.168 271.428 109.478 271.386C109.792 271.334 110.057 271.227 110.275 271.063C110.493 270.899 110.637 270.686 110.707 270.425L110.935 269.573L110.191 269.374C109.416 269.166 108.802 269.113 108.35 269.214C107.909 269.308 107.633 269.563 107.522 269.977C107.44 270.284 107.483 270.556 107.651 270.795C107.819 271.033 108.106 271.206 108.512 271.315ZM113.456 273.886L115.34 266.854L116.882 267.267L116.688 268.1L116.715 268.107C117.049 267.868 117.414 267.714 117.809 267.646C118.207 267.569 118.64 267.594 119.108 267.719C119.568 267.842 119.933 268.032 120.203 268.288C120.484 268.537 120.651 268.833 120.704 269.176L120.731 269.183C121.091 268.922 121.467 268.762 121.86 268.703C122.252 268.644 122.688 268.678 123.165 268.806C123.923 269.009 124.418 269.359 124.652 269.857C124.888 270.345 124.892 271.018 124.662 271.874L123.409 276.553L121.799 276.122L122.944 271.849C123.087 271.317 123.105 270.906 122.999 270.617C122.893 270.328 122.651 270.132 122.272 270.031C121.821 269.91 121.425 269.963 121.084 270.191C120.743 270.418 120.506 270.78 120.373 271.276L119.257 275.441L117.634 275.006L118.812 270.611C118.935 270.151 118.933 269.779 118.807 269.494C118.683 269.199 118.445 269.005 118.093 268.911C117.823 268.839 117.556 268.844 117.292 268.928C117.037 269.014 116.809 269.161 116.608 269.368C116.417 269.578 116.279 269.84 116.194 270.156L115.078 274.321L113.456 273.886ZM128.54 278.073C127.296 277.74 126.425 277.168 125.927 276.358C125.429 275.549 125.337 274.558 125.651 273.386C125.955 272.25 126.501 271.439 127.288 270.954C128.084 270.472 129.018 270.375 130.091 270.662C131.128 270.94 131.848 271.461 132.252 272.227C132.656 272.992 132.707 273.938 132.405 275.065C132.371 275.191 132.329 275.33 132.279 275.48C132.229 275.631 132.189 275.741 132.161 275.811L126.4 274.268L126.723 273.064L131.212 274.267L130.871 274.567C131.069 273.828 131.071 273.244 130.877 272.815C130.694 272.379 130.319 272.085 129.751 271.933C129.147 271.771 128.636 271.837 128.219 272.132C127.814 272.419 127.513 272.928 127.317 273.658L127.191 274.131C127.007 274.817 127.051 275.374 127.322 275.804C127.596 276.226 128.098 276.534 128.828 276.73C129.206 276.831 129.622 276.904 130.074 276.948C130.528 276.983 130.939 276.981 131.307 276.945L131.162 278.297C130.783 278.341 130.362 278.344 129.898 278.307C129.435 278.269 128.982 278.191 128.54 278.073Z" fill="#B9BEBD"/>
<path d="M130.173 159.855C129.1 159.568 128.231 159.117 127.564 158.504C126.898 157.89 126.458 157.149 126.247 156.281C126.044 155.415 126.084 154.455 126.366 153.4C126.651 152.336 127.097 151.484 127.703 150.845C128.321 150.199 129.072 149.777 129.956 149.579C130.84 149.381 131.818 149.426 132.891 149.713C134.117 150.041 135.132 150.599 135.936 151.384L135.145 152.767C134.366 151.997 133.498 151.485 132.543 151.229C131.831 151.038 131.174 151.016 130.574 151.165C129.976 151.304 129.467 151.602 129.045 152.059C128.623 152.516 128.311 153.119 128.111 153.867C127.913 154.607 127.881 155.284 128.015 155.9C128.152 156.507 128.444 157.024 128.889 157.453C129.337 157.873 129.917 158.178 130.63 158.369C131.558 158.617 132.566 158.607 133.653 158.338L133.646 159.931C132.557 160.209 131.399 160.184 130.173 159.855ZM135.117 161.035L137.001 154.003L138.597 154.431L138.255 155.759L138.282 155.767C138.599 155.523 138.944 155.335 139.317 155.203C139.702 155.065 140.103 154.994 140.52 154.989C140.939 154.976 141.36 155.026 141.784 155.14L141.4 156.573C140.832 156.421 140.284 156.39 139.758 156.481C139.24 156.574 138.792 156.768 138.413 157.063C138.046 157.351 137.802 157.72 137.681 158.171L136.794 161.484L135.117 161.035ZM144.021 163.566C142.777 163.232 141.906 162.661 141.408 161.851C140.91 161.041 140.818 160.05 141.132 158.878C141.436 157.742 141.982 156.932 142.769 156.447C143.565 155.965 144.499 155.867 145.572 156.155C146.609 156.432 147.329 156.954 147.733 157.719C148.137 158.484 148.187 159.43 147.885 160.557C147.852 160.684 147.81 160.822 147.76 160.973C147.709 161.124 147.67 161.234 147.642 161.304L141.881 159.76L142.204 158.557L146.693 159.76L146.352 160.06C146.55 159.32 146.552 158.736 146.358 158.307C146.175 157.872 145.799 157.578 145.232 157.426C144.627 157.264 144.117 157.33 143.7 157.624C143.294 157.912 142.994 158.42 142.798 159.151L142.671 159.624C142.488 160.309 142.532 160.867 142.803 161.297C143.076 161.718 143.578 162.027 144.309 162.222C144.687 162.324 145.103 162.396 145.555 162.44C146.009 162.475 146.42 162.474 146.787 162.437L146.642 163.79C146.264 163.833 145.842 163.836 145.379 163.799C144.916 163.762 144.463 163.684 144.021 163.566ZM150.894 165.407C149.956 165.156 149.312 164.64 148.96 163.86C148.609 163.08 148.588 162.113 148.897 160.959C149.206 159.805 149.708 158.978 150.402 158.478C151.097 157.978 151.913 157.854 152.85 158.105C153.319 158.23 153.721 158.425 154.056 158.689C154.392 158.953 154.648 159.277 154.824 159.663L154.865 159.674L155.847 156.009L157.483 156.447L154.838 166.319L153.283 165.902L153.477 165.07L153.45 165.063C153.106 165.3 152.709 165.449 152.257 165.512C151.817 165.568 151.363 165.533 150.894 165.407ZM151.689 164.171C152.04 164.265 152.371 164.276 152.68 164.205C152.998 164.135 153.272 163.996 153.502 163.787C153.732 163.578 153.889 163.316 153.974 163L154.314 161.729C154.401 161.405 154.396 161.099 154.299 160.812C154.204 160.516 154.041 160.26 153.809 160.043C153.578 159.826 153.281 159.67 152.921 159.573C152.353 159.421 151.858 159.501 151.436 159.813C151.023 160.128 150.718 160.654 150.52 161.394C150.322 162.133 150.323 162.742 150.523 163.221C150.732 163.702 151.121 164.019 151.689 164.171ZM159.153 158.605L159.581 157.009L161.258 157.459L160.83 159.054L159.153 158.605ZM156.936 166.881L158.809 159.89L160.486 160.339L158.613 167.331L156.936 166.881ZM163.825 168.872C162.996 168.65 162.442 168.318 162.164 167.876C161.886 167.435 161.851 166.826 162.059 166.051L163.037 162.4L161.469 161.979L161.824 160.654L163.393 161.075L164.009 158.776L165.685 159.225L165.069 161.524L167.436 162.158L167.081 163.483L164.714 162.849L163.848 166.081C163.727 166.532 163.715 166.867 163.811 167.086C163.918 167.298 164.161 167.455 164.54 167.556C164.738 167.61 164.951 167.647 165.177 167.669C165.403 167.691 165.61 167.693 165.798 167.676L165.581 169.082C165.25 169.09 164.945 169.076 164.664 169.039C164.384 169.003 164.105 168.947 163.825 168.872ZM175.655 172.042C174.582 171.754 173.712 171.304 173.046 170.691C172.379 170.077 171.94 169.336 171.728 168.468C171.525 167.602 171.565 166.641 171.848 165.587C172.133 164.523 172.579 163.671 173.185 163.032C173.802 162.385 174.553 161.963 175.437 161.765C176.321 161.567 177.3 161.612 178.372 161.9C179.599 162.228 180.614 162.785 181.418 163.571L180.627 164.953C179.847 164.184 178.98 163.671 178.024 163.415C177.312 163.224 176.656 163.203 176.056 163.352C175.458 163.491 174.948 163.789 174.526 164.246C174.104 164.703 173.793 165.306 173.592 166.054C173.394 166.793 173.362 167.471 173.497 168.087C173.634 168.693 173.925 169.211 174.371 169.64C174.819 170.059 175.399 170.365 176.111 170.555C177.04 170.804 178.047 170.794 179.134 170.525L179.128 172.117C178.039 172.396 176.881 172.37 175.655 172.042ZM182.16 173.785C181.457 173.597 180.953 173.259 180.649 172.771C180.356 172.277 180.298 171.701 180.474 171.043C180.694 170.223 181.183 169.677 181.941 169.407C182.7 169.137 183.67 169.16 184.851 169.477L185.838 169.741C185.93 169.398 185.955 169.125 185.913 168.92C185.882 168.709 185.773 168.54 185.585 168.412C185.406 168.287 185.132 168.175 184.762 168.076C184.311 167.955 183.83 167.875 183.319 167.834C182.817 167.796 182.33 167.811 181.858 167.878L181.994 166.508C182.499 166.46 183.045 166.461 183.63 166.512C184.216 166.562 184.788 166.662 185.347 166.812C186.059 167.003 186.595 167.239 186.955 167.519C187.324 167.801 187.544 168.169 187.616 168.623C187.687 169.077 187.634 169.638 187.455 170.305L186.266 174.74L184.684 174.316L184.888 173.501L184.861 173.494C184.543 173.708 184.13 173.844 183.622 173.901C183.116 173.949 182.629 173.911 182.16 173.785ZM183.103 172.646C183.436 172.736 183.758 172.759 184.069 172.717C184.383 172.665 184.648 172.558 184.866 172.394C185.084 172.23 185.228 172.017 185.298 171.756L185.526 170.904L184.782 170.705C184.007 170.497 183.393 170.444 182.941 170.545C182.5 170.639 182.224 170.894 182.113 171.308C182.031 171.615 182.074 171.887 182.242 172.126C182.41 172.364 182.697 172.537 183.103 172.646ZM188.047 175.217L189.931 168.185L191.527 168.613L191.185 169.942L191.212 169.949C191.529 169.705 191.874 169.518 192.247 169.386C192.632 169.247 193.033 169.176 193.449 169.172C193.868 169.158 194.29 169.208 194.714 169.322L194.33 170.755C193.762 170.603 193.214 170.573 192.687 170.663C192.17 170.756 191.722 170.95 191.343 171.245C190.976 171.533 190.732 171.903 190.611 172.354L189.723 175.667L188.047 175.217ZM196.058 177.509C195.121 177.258 194.476 176.742 194.125 175.962C193.774 175.182 193.752 174.215 194.062 173.061C194.371 171.907 194.873 171.08 195.567 170.58C196.261 170.08 197.077 169.955 198.015 170.207C198.484 170.332 198.886 170.527 199.221 170.791C199.556 171.054 199.812 171.379 199.989 171.765L200.03 171.776L201.012 168.111L202.648 168.549L200.003 178.421L198.448 178.004L198.642 177.172L198.615 177.165C198.271 177.401 197.873 177.551 197.422 177.613C196.982 177.669 196.527 177.635 196.058 177.509ZM196.853 176.273C197.205 176.367 197.535 176.378 197.844 176.306C198.163 176.237 198.437 176.098 198.667 175.889C198.896 175.68 199.054 175.418 199.138 175.102L199.479 173.831C199.566 173.506 199.561 173.201 199.464 172.914C199.369 172.618 199.206 172.362 198.974 172.145C198.742 171.928 198.446 171.772 198.085 171.675C197.517 171.523 197.023 171.603 196.601 171.915C196.188 172.229 195.882 172.756 195.684 173.495C195.486 174.235 195.487 174.844 195.688 175.323C195.897 175.804 196.285 176.121 196.853 176.273ZM205.851 179.988L208.496 170.116L210.295 170.598L212.818 178.869L212.845 178.876L214.744 171.79L216.42 172.24L213.775 182.111L211.977 181.629L209.467 173.362L209.44 173.355L207.541 180.441L205.851 179.988ZM218.892 183.627C217.756 183.323 216.962 182.772 216.509 181.974C216.067 181.17 216.002 180.186 216.314 179.023C216.625 177.86 217.172 177.045 217.954 176.578C218.748 176.105 219.713 176.021 220.849 176.325C221.985 176.629 222.778 177.185 223.228 177.992C223.681 178.789 223.752 179.77 223.44 180.933C223.129 182.096 222.576 182.914 221.783 183.387C220.991 183.852 220.028 183.932 218.892 183.627ZM219.247 182.302C219.869 182.469 220.394 182.402 220.823 182.101C221.254 181.791 221.572 181.253 221.777 180.487C221.982 179.721 221.975 179.1 221.754 178.626C221.536 178.142 221.116 177.817 220.494 177.65C219.88 177.486 219.354 177.557 218.914 177.865C218.486 178.165 218.169 178.699 217.964 179.465C217.758 180.231 217.765 180.856 217.983 181.34C218.213 181.817 218.634 182.138 219.247 182.302ZM223.814 184.801L224.324 182.894L226.245 183.409L225.734 185.316L223.814 184.801Z" fill="#B9BEBD"/>
<path d="M269.789 309.768L272.434 299.896L279.033 301.664L278.642 303.125L273.733 301.81L273.052 304.352L277.69 305.595L277.306 307.028L272.668 305.785L271.87 308.76L276.779 310.076L276.388 311.536L269.789 309.768ZM277.472 311.827L280.652 308.881L279.383 304.802L281.222 305.295L282.007 308.317L282.034 308.324L284.224 306.099L286.063 306.592L282.924 309.49L284.206 313.631L282.367 313.138L281.566 310.068L281.539 310.061L279.324 312.323L277.472 311.827ZM291.436 307.886C292.374 308.138 293.018 308.653 293.369 309.434C293.721 310.214 293.742 311.181 293.433 312.335C293.123 313.489 292.622 314.316 291.927 314.816C291.233 315.316 290.417 315.44 289.479 315.189C289.019 315.066 288.618 314.871 288.273 314.605C287.941 314.332 287.685 314.007 287.505 313.631L287.478 313.624L286.496 317.288L284.833 316.843L287.478 306.971L289.06 307.395L288.853 308.223L288.88 308.231C289.235 307.988 289.632 307.838 290.073 307.782C290.513 307.726 290.967 307.761 291.436 307.886ZM290.641 309.123C290.298 309.031 289.968 309.02 289.65 309.089C289.332 309.159 289.058 309.298 288.828 309.507C288.609 309.709 288.457 309.972 288.37 310.297L288.029 311.568C287.944 311.884 287.945 312.188 288.031 312.482C288.125 312.778 288.293 313.035 288.534 313.254C288.775 313.473 289.066 313.629 289.409 313.721C289.986 313.875 290.481 313.795 290.894 313.481C291.306 313.166 291.612 312.639 291.81 311.9C292.008 311.161 292.007 310.552 291.807 310.073C291.606 309.594 291.218 309.277 290.641 309.123ZM293.813 316.205L294.324 314.298L296.244 314.813L295.733 316.72L293.813 316.205Z" fill="#B9BEBD"/>
<path d="M263.049 351.074C261.921 350.772 261.178 350.192 260.82 349.334C260.461 348.476 260.48 347.309 260.876 345.833C261.271 344.357 261.838 343.337 262.577 342.774C263.317 342.21 264.25 342.079 265.378 342.381C266.507 342.683 267.246 343.263 267.596 344.118C267.955 344.976 267.936 346.143 267.54 347.619C267.145 349.095 266.578 350.115 265.838 350.679C265.107 351.245 264.177 351.377 263.049 351.074ZM263.394 349.788C264.035 349.96 264.569 349.838 264.995 349.422C265.421 349.006 265.775 348.273 266.057 347.222C266.34 346.163 266.401 345.351 266.237 344.785C266.076 344.212 265.675 343.84 265.034 343.668C264.392 343.496 263.855 343.617 263.421 344.031C262.997 344.439 262.643 345.172 262.359 346.231C262.078 347.282 262.017 348.094 262.178 348.667C262.347 349.242 262.752 349.616 263.394 349.788ZM272.827 344.377C273.522 344.563 274.076 344.844 274.489 345.22C274.902 345.596 275.164 346.055 275.275 346.598C275.394 347.144 275.358 347.772 275.168 348.483C274.882 349.549 274.424 350.424 273.793 351.108C273.173 351.787 272.419 352.252 271.531 352.503C270.644 352.753 269.655 352.766 268.565 352.54L268.623 351.301C269.596 351.504 270.431 351.508 271.129 351.314C271.829 351.112 272.416 350.702 272.888 350.083L272.868 350.065C272.546 350.153 272.215 350.197 271.876 350.197C271.544 350.199 271.193 350.151 270.822 350.051C269.964 349.821 269.355 349.389 268.995 348.754C268.643 348.122 268.586 347.361 268.824 346.472C268.99 345.854 269.259 345.359 269.632 344.987C270.005 344.615 270.462 344.377 271.003 344.273C271.547 344.162 272.154 344.197 272.827 344.377ZM272.494 345.617C271.922 345.464 271.442 345.497 271.052 345.715C270.672 345.928 270.41 346.301 270.267 346.834C270.125 347.367 270.156 347.823 270.361 348.201C270.576 348.573 270.954 348.832 271.495 348.977C271.881 349.08 272.23 349.108 272.541 349.059C272.855 349.002 273.118 348.869 273.331 348.661C273.554 348.448 273.711 348.171 273.802 347.831C273.883 347.53 273.896 347.231 273.843 346.935C273.798 346.641 273.665 346.378 273.446 346.145C273.237 345.907 272.919 345.731 272.494 345.617ZM274.259 354.451L280.901 346.168L282.315 346.547L275.673 354.83L274.259 354.451ZM284.084 356.587L285.917 349.748L285.894 349.742L282.457 350.697L282.379 349.322L286.352 348.125L287.824 348.52L285.557 356.981L284.084 356.587ZM291.533 358.582L293.365 351.744L293.342 351.737L289.906 352.693L289.827 351.317L293.8 350.121L295.272 350.515L293.005 358.977L291.533 358.582Z" fill="white"/>
<path d="M86.5655 303.662L88.8327 295.2L91.3828 295.884C92.6269 296.217 93.481 296.661 93.9452 297.216C94.417 297.773 94.536 298.489 94.302 299.362C94.0722 300.22 93.6222 300.786 92.9519 301.062C92.2894 301.34 91.394 301.328 90.2658 301.026L88.1099 300.448L88.408 299.335L90.3785 299.863C91.1667 300.075 91.7637 300.119 92.1694 299.995C92.5849 299.867 92.8589 299.555 92.9914 299.06C93.1239 298.566 93.0414 298.163 92.7439 297.851C92.4563 297.534 91.9183 297.27 91.1301 297.058L89.7971 296.701L87.8405 304.004L86.5655 303.662ZM91.5149 304.988L88.7155 300.089L90.3267 300.52L93.1724 305.432L91.5149 304.988ZM94.557 305.803L96.8242 297.342L102.388 298.833L102.084 299.968L97.7949 298.819L97.1675 301.161L101.224 302.248L100.926 303.361L96.8693 302.273L96.1364 305.009L100.425 306.158L100.121 307.294L94.557 305.803ZM107.108 309.166L109.375 300.705L110.65 301.046L108.383 309.508L107.108 309.166ZM101.892 307.769L104.159 299.307L105.434 299.649L103.167 308.11L101.892 307.769ZM103.561 304.091L103.871 302.932L109.087 304.33L108.777 305.489L103.561 304.091ZM109.524 309.814L114.875 302.178L116.602 302.641L117.406 311.926L116.004 311.55L115.452 303.501L115.429 303.495L110.927 310.19L109.524 309.814ZM111.692 308.121L112.003 306.962L116.697 308.22L116.387 309.379L111.692 308.121ZM118.543 312.23L120.81 303.769L122.201 304.141L124.527 311.597L124.55 311.604L126.258 305.229L127.533 305.57L125.266 314.032L123.875 313.659L121.549 306.203L121.526 306.197L119.818 312.572L118.543 312.23ZM130.485 315.43L132.752 306.969L135.302 307.652C136.546 307.985 137.4 308.429 137.865 308.985C138.336 309.542 138.455 310.257 138.221 311.13C137.992 311.988 137.542 312.555 136.871 312.83C136.209 313.108 135.313 313.096 134.185 312.794L132.029 312.216L132.327 311.104L134.298 311.632C135.086 311.843 135.683 311.887 136.089 311.764C136.504 311.635 136.778 311.323 136.911 310.828C137.043 310.334 136.961 309.931 136.663 309.619C136.376 309.302 135.838 309.038 135.05 308.827L133.717 308.469L131.76 315.772L130.485 315.43ZM135.434 316.756L132.635 311.857L134.246 312.289L137.092 317.2L135.434 316.756ZM137.642 317.348L142.992 309.712L144.719 310.175L145.524 319.46L144.121 319.084L143.57 311.035L143.547 311.029L139.044 317.724L137.642 317.348ZM139.81 315.655L140.12 314.496L144.815 315.754L144.504 316.913L139.81 315.655ZM146.765 319.792L149.032 311.331L150.353 311.685L148.086 320.146L146.765 319.792ZM155.374 322.099L157.641 313.638L158.916 313.979L156.649 322.441L155.374 322.099ZM150.158 320.702L152.425 312.24L153.7 312.582L151.433 321.043L150.158 320.702ZM151.827 317.024L152.137 315.865L157.353 317.263L157.043 318.422L151.827 317.024ZM157.79 322.747L163.141 315.111L164.868 315.574L165.672 324.859L164.27 324.483L163.718 316.434L163.695 316.428L159.193 323.122L157.79 322.747ZM159.958 321.054L160.269 319.895L164.963 321.153L164.653 322.312L159.958 321.054ZM166.809 325.163L169.076 316.702L170.467 317.074L172.793 324.53L172.816 324.536L174.524 318.161L175.799 318.503L173.532 326.965L172.141 326.592L169.815 319.136L169.792 319.13L168.084 325.505L166.809 325.163Z" fill="white"/>
<path fill-rule="evenodd" clip-rule="evenodd" d="M167.975 97.4585C172.143 95.2807 175.42 91.4326 176.733 86.5321C178.047 81.6315 177.132 76.66 174.611 72.6901C178.342 70.7411 182.788 70.1308 187.175 71.3062C196.462 73.7947 201.973 83.3411 199.485 92.6283C196.996 101.915 187.45 107.427 178.163 104.939C173.776 103.763 170.231 101.012 167.975 97.4585ZM167.975 97.4585C164.244 99.4075 159.798 100.018 155.411 98.8424C146.124 96.3539 140.613 86.8075 143.101 77.5203C145.59 68.2331 155.136 62.7215 164.423 65.21C168.81 66.3854 172.355 69.1368 174.611 72.6901C170.443 74.8678 167.166 78.716 165.852 83.6165C164.539 88.517 165.454 93.4885 167.975 97.4585Z" fill="white"/>
<path fill-rule="evenodd" clip-rule="evenodd" d="M580.976 177.174C581.911 176.824 582.954 177.298 583.305 178.233C585.172 183.214 586.825 191.298 585.742 199.518C584.651 207.795 580.759 216.319 571.446 221.777C570.584 222.282 569.476 221.993 568.971 221.131C568.466 220.27 568.755 219.161 569.617 218.656C577.739 213.896 581.172 206.507 582.155 199.046C583.146 191.528 581.621 184.047 579.917 179.503C579.567 178.568 580.041 177.525 580.976 177.174ZM571.686 181.553C572.621 181.201 573.664 181.673 574.016 182.608C575.337 186.115 576.506 191.79 575.746 197.574C574.978 203.415 572.217 209.473 565.589 213.344C564.727 213.848 563.619 213.557 563.115 212.694C562.611 211.832 562.902 210.724 563.765 210.22C569.199 207.046 571.499 202.124 572.159 197.103C572.826 192.024 571.787 186.953 570.631 183.883C570.279 182.948 570.751 181.905 571.686 181.553ZM563.982 186.984C564.915 186.627 565.96 187.095 566.317 188.028C567.042 189.927 567.685 192.976 567.278 196.104C566.863 199.292 565.332 202.662 561.63 204.799C560.765 205.299 559.659 205.003 559.159 204.137C558.66 203.272 558.956 202.166 559.822 201.667C562.323 200.223 563.384 197.994 563.69 195.638C564.005 193.222 563.496 190.781 562.937 189.319C562.581 188.386 563.048 187.34 563.982 186.984Z" fill="white"/>
<path d="M116.578 207.907L121.258 190.443L121.196 190.426L113.099 194.187L114.457 189.118L122.624 185.343L127.075 186.536L121.029 209.1L116.578 207.907ZM131.827 212.324C130.096 211.86 128.785 211.189 127.894 210.31C127.024 209.436 126.534 208.256 126.425 206.769C126.336 205.287 126.595 203.413 127.202 201.146C128.058 197.952 129.169 195.456 130.534 193.657C131.905 191.838 133.588 190.666 135.584 190.141C137.58 189.615 139.944 189.697 142.675 190.384L141.648 194.217C140.411 193.886 139.244 193.794 138.144 193.941C137.05 194.067 136.11 194.401 135.325 194.941C134.54 195.482 133.979 196.215 133.642 197.141L133.766 197.174C134.426 197.019 135.03 196.949 135.578 196.964C136.126 196.978 136.699 197.065 137.297 197.225C139.275 197.755 140.565 198.753 141.167 200.217C141.794 201.666 141.768 203.658 141.089 206.192C140.322 209.057 139.213 210.968 137.764 211.927C136.34 212.871 134.361 213.003 131.827 212.324ZM132.852 208.623C133.779 208.872 134.547 208.724 135.157 208.181C135.772 207.617 136.267 206.634 136.642 205.233C137.018 203.832 137.077 202.743 136.821 201.968C136.571 201.172 135.982 200.65 135.055 200.401C134.127 200.153 133.356 200.311 132.741 200.875C132.132 201.418 131.639 202.39 131.264 203.792C130.888 205.193 130.826 206.291 131.077 207.087C131.333 207.863 131.924 208.375 132.852 208.623ZM149.982 206.389C149.322 206.212 148.849 205.875 148.563 205.379C148.276 204.883 148.218 204.315 148.389 203.676C148.566 203.017 148.9 202.554 149.391 202.288C149.887 202.001 150.465 201.946 151.125 202.123C151.784 202.3 152.257 202.636 152.544 203.133C152.836 203.609 152.893 204.176 152.717 204.836C152.546 205.474 152.212 205.937 151.715 206.224C151.219 206.51 150.641 206.565 149.982 206.389ZM147.282 216.465C145.571 216.007 144.302 215.302 143.475 214.352C142.653 213.381 142.225 212.051 142.191 210.364C142.158 208.676 142.489 206.534 143.184 203.938L143.681 202.083C144.382 199.466 145.167 197.446 146.034 196.022C146.907 194.577 147.94 193.65 149.132 193.241C150.329 192.811 151.783 192.825 153.493 193.283C155.183 193.736 156.439 194.448 157.261 195.419C158.109 196.375 158.55 197.697 158.584 199.384C158.623 201.051 158.292 203.193 157.591 205.81L157.094 207.665C156.398 210.261 155.614 212.282 154.741 213.726C153.868 215.171 152.822 216.106 151.604 216.53C150.412 216.94 148.971 216.918 147.282 216.465ZM148.309 212.632C149.009 212.82 149.584 212.775 150.034 212.498C150.484 212.221 150.906 211.595 151.3 210.618C151.72 209.626 152.195 208.141 152.725 206.163L153.057 204.927C153.587 202.949 153.915 201.435 154.041 200.387C154.194 199.323 154.144 198.559 153.894 198.095C153.643 197.63 153.167 197.303 152.466 197.116C151.786 196.934 151.211 196.978 150.741 197.25C150.291 197.527 149.856 198.161 149.436 199.153C149.042 200.129 148.579 201.607 148.049 203.585L147.718 204.821C147.188 206.8 146.847 208.32 146.694 209.384C146.568 210.432 146.63 211.189 146.881 211.654C147.153 212.124 147.629 212.45 148.309 212.632ZM157.631 214.932C159.435 213.803 160.979 212.781 162.262 211.866C163.551 210.93 164.621 210.068 165.473 209.281C166.33 208.472 166.997 207.712 167.475 207.001C167.953 206.29 168.286 205.584 168.473 204.883C168.766 203.791 168.744 202.924 168.408 202.282C168.072 201.64 167.4 201.183 166.39 200.913C165.071 200.559 163.413 200.524 161.416 200.806L162.493 196.788C164.221 196.522 166.197 196.687 168.423 197.283C170.669 197.885 172.174 198.863 172.937 200.216C173.707 201.548 173.788 203.348 173.18 205.615C172.926 206.562 172.533 207.495 172 208.412C171.493 209.315 170.834 210.209 170.022 211.096C169.21 211.983 168.256 212.864 167.16 213.741C166.084 214.624 164.846 215.495 163.444 216.357L163.411 216.48L169.995 218.244L169.001 221.954L156.637 218.641L157.631 214.932ZM211.801 222.953C211.141 222.776 210.668 222.44 210.382 221.943C210.095 221.447 210.037 220.879 210.209 220.241C210.385 219.581 210.719 219.118 211.21 218.852C211.706 218.566 212.284 218.511 212.944 218.688C213.603 218.864 214.076 219.201 214.363 219.697C214.655 220.173 214.713 220.741 214.536 221.4C214.365 222.039 214.031 222.502 213.535 222.788C213.038 223.075 212.46 223.13 211.801 222.953ZM209.101 233.03C207.39 232.571 206.122 231.867 205.294 230.916C204.472 229.945 204.044 228.616 204.011 226.928C203.977 225.241 204.308 223.099 205.004 220.502L205.5 218.648C206.202 216.031 206.986 214.01 207.853 212.586C208.726 211.142 209.759 210.215 210.951 209.805C212.148 209.375 213.602 209.389 215.312 209.847C217.002 210.3 218.258 211.012 219.08 211.983C219.928 212.939 220.369 214.261 220.403 215.949C220.442 217.616 220.111 219.758 219.41 222.375L218.913 224.229C218.217 226.826 217.433 228.846 216.56 230.291C215.687 231.735 214.641 232.67 213.423 233.095C212.231 233.504 210.791 233.482 209.101 233.03ZM210.128 229.197C210.828 229.385 211.404 229.34 211.853 229.063C212.303 228.786 212.725 228.159 213.119 227.182C213.539 226.191 214.015 224.706 214.545 222.728L214.876 221.491C215.406 219.513 215.734 218 215.861 216.951C216.013 215.888 215.964 215.124 215.713 214.659C215.462 214.194 214.986 213.868 214.285 213.68C213.605 213.498 213.03 213.543 212.56 213.814C212.11 214.091 211.675 214.726 211.255 215.717C210.861 216.694 210.399 218.171 209.869 220.149L209.537 221.386C209.007 223.364 208.666 224.885 208.514 225.948C208.387 226.997 208.45 227.753 208.701 228.218C208.972 228.688 209.448 229.015 210.128 229.197ZM230.767 213.988C232.519 214.458 233.83 215.129 234.7 216.003C235.57 216.877 236.05 218.054 236.139 219.536C236.248 221.023 235.999 222.9 235.392 225.166C234.542 228.34 233.431 230.836 232.06 232.655C230.689 234.474 229.006 235.647 227.01 236.172C225.034 236.703 222.671 236.622 219.919 235.928L220.946 232.096C222.203 232.432 223.368 232.535 224.442 232.403C225.541 232.256 226.484 231.912 227.269 231.371C228.06 230.81 228.621 230.077 228.952 229.172L228.828 229.139C228.168 229.293 227.564 229.363 227.016 229.349C226.468 229.335 225.895 229.247 225.297 229.087C223.319 228.557 222.016 227.567 221.388 226.118C220.787 224.654 220.826 222.655 221.505 220.12C222.272 217.256 223.368 215.352 224.791 214.408C226.241 213.449 228.233 213.309 230.767 213.988ZM229.743 217.689C228.815 217.441 228.044 217.599 227.429 218.163C226.82 218.706 226.327 219.679 225.952 221.08C225.576 222.481 225.514 223.58 225.764 224.376C226.021 225.151 226.612 225.663 227.539 225.911C228.467 226.16 229.235 226.012 229.845 225.469C230.459 224.905 230.955 223.922 231.33 222.521C231.706 221.12 231.765 220.031 231.509 219.256C231.259 218.46 230.67 217.938 229.743 217.689ZM240.217 241.036L244.896 223.572L244.835 223.555L236.737 227.316L238.096 222.247L246.263 218.472L250.714 219.664L244.668 242.228L240.217 241.036ZM255.672 245.177L260.351 227.713L260.289 227.696L252.192 231.457L253.55 226.388L261.718 222.613L266.169 223.806L260.123 246.37L255.672 245.177ZM296.724 252.202C298.529 251.073 300.073 250.051 301.356 249.136C302.645 248.2 303.715 247.338 304.566 246.551C305.423 245.742 306.091 244.982 306.568 244.271C307.046 243.56 307.379 242.854 307.567 242.153C307.859 241.061 307.838 240.194 307.502 239.552C307.166 238.91 306.493 238.453 305.483 238.183C304.164 237.829 302.506 237.794 300.509 238.076L301.586 234.058C303.314 233.792 305.29 233.957 307.516 234.553C309.762 235.155 311.267 236.133 312.031 237.486C312.8 238.818 312.881 240.618 312.274 242.884C312.02 243.832 311.626 244.765 311.093 245.682C310.587 246.585 309.927 247.479 309.115 248.366C308.304 249.253 307.35 250.134 306.253 251.011C305.178 251.894 303.939 252.765 302.538 253.627L302.505 253.75L309.088 255.514L308.094 259.224L295.731 255.911L296.724 252.202ZM319.985 251.941C319.325 251.764 318.852 251.428 318.565 250.931C318.279 250.435 318.221 249.867 318.392 249.228C318.569 248.569 318.903 248.106 319.394 247.84C319.89 247.554 320.468 247.499 321.127 247.675C321.787 247.852 322.26 248.189 322.546 248.685C322.839 249.161 322.896 249.728 322.72 250.388C322.549 251.027 322.215 251.489 321.718 251.776C321.222 252.063 320.644 252.117 319.985 251.941ZM317.285 262.017C315.574 261.559 314.305 260.855 313.478 259.904C312.656 258.933 312.228 257.604 312.194 255.916C312.161 254.228 312.492 252.086 313.187 249.49L313.684 247.635C314.385 245.018 315.17 242.998 316.037 241.574C316.91 240.129 317.943 239.202 319.135 238.793C320.332 238.363 321.786 238.377 323.496 238.835C325.186 239.288 326.442 240 327.264 240.971C328.112 241.927 328.553 243.249 328.586 244.936C328.626 246.603 328.295 248.745 327.593 251.362L327.097 253.217C326.401 255.813 325.617 257.834 324.744 259.279C323.871 260.723 322.825 261.658 321.607 262.082C320.415 262.492 318.974 262.47 317.285 262.017ZM318.312 258.185C319.012 258.372 319.587 258.328 320.037 258.051C320.487 257.773 320.909 257.147 321.303 256.17C321.723 255.178 322.198 253.693 322.728 251.715L323.06 250.479C323.59 248.501 323.918 246.987 324.044 245.939C324.197 244.876 324.147 244.111 323.896 243.647C323.646 243.182 323.17 242.856 322.469 242.668C321.789 242.486 321.214 242.53 320.744 242.802C320.294 243.079 319.859 243.713 319.439 244.705C319.045 245.682 318.582 247.159 318.052 249.137L317.721 250.374C317.191 252.352 316.85 253.873 316.697 254.936C316.571 255.984 316.633 256.741 316.884 257.206C317.156 257.676 317.632 258.002 318.312 258.185ZM332.946 265.882L337.625 248.419L337.563 248.402L329.466 252.162L330.825 247.093L338.992 243.318L343.443 244.511L337.397 267.075L332.946 265.882ZM354.406 247.117C356.157 247.587 357.468 248.258 358.338 249.132C359.209 250.005 359.688 251.183 359.777 252.665C359.887 254.152 359.638 256.028 359.03 258.295C358.18 261.468 357.069 263.965 355.699 265.784C354.328 267.603 352.644 268.775 350.648 269.301C348.673 269.832 346.309 269.75 343.558 269.057L344.585 265.224C345.842 265.561 347.007 265.664 348.08 265.532C349.18 265.385 350.122 265.041 350.908 264.5C351.698 263.939 352.259 263.206 352.59 262.301L352.467 262.268C351.807 262.422 351.203 262.492 350.654 262.478C350.106 262.463 349.533 262.376 348.936 262.216C346.957 261.686 345.654 260.696 345.027 259.247C344.425 257.783 344.464 255.783 345.143 253.249C345.911 250.385 347.006 248.481 348.43 247.537C349.879 246.578 351.871 246.438 354.406 247.117ZM353.381 250.818C352.454 250.57 351.683 250.728 351.068 251.292C350.458 251.835 349.966 252.807 349.59 254.209C349.215 255.61 349.152 256.708 349.403 257.504C349.659 258.28 350.251 258.792 351.178 259.04C352.105 259.289 352.874 259.141 353.483 258.598C354.098 258.034 354.593 257.051 354.969 255.65C355.344 254.248 355.404 253.16 355.148 252.385C354.897 251.589 354.308 251.067 353.381 250.818ZM389.453 277.048C391.258 275.919 392.801 274.897 394.085 273.982C395.373 273.047 396.444 272.185 397.295 271.397C398.152 270.589 398.82 269.829 399.297 269.118C399.775 268.406 400.108 267.701 400.295 267C400.588 265.908 400.566 265.041 400.231 264.398C399.895 263.756 399.222 263.3 398.212 263.029C396.893 262.676 395.235 262.64 393.238 262.922L394.315 258.904C396.043 258.638 398.019 258.804 400.245 259.4C402.491 260.002 403.996 260.979 404.76 262.332C405.529 263.665 405.61 265.464 405.003 267.731C404.749 268.679 404.355 269.612 403.822 270.529C403.315 271.431 402.656 272.326 401.844 273.212C401.032 274.099 400.078 274.981 398.982 275.858C397.906 276.74 396.668 277.612 395.267 278.473L395.233 278.597L401.817 280.361L400.823 284.07L388.459 280.757L389.453 277.048ZM412.713 276.787C412.054 276.611 411.581 276.274 411.294 275.778C411.008 275.281 410.95 274.714 411.121 274.075C411.298 273.415 411.632 272.953 412.123 272.687C412.619 272.4 413.197 272.345 413.856 272.522C414.516 272.699 414.989 273.035 415.275 273.532C415.568 274.007 415.625 274.575 415.449 275.234C415.277 275.873 414.944 276.336 414.447 276.623C413.951 276.909 413.373 276.964 412.713 276.787ZM410.013 286.864C408.303 286.406 407.034 285.701 406.207 284.751C405.385 283.78 404.957 282.45 404.923 280.763C404.889 279.075 405.22 276.933 405.916 274.337L406.413 272.482C407.114 269.865 407.899 267.845 408.766 266.421C409.639 264.976 410.671 264.049 411.863 263.639C413.061 263.209 414.515 263.223 416.225 263.682C417.915 264.134 419.171 264.846 419.993 265.818C420.841 266.774 421.282 268.096 421.315 269.783C421.355 271.45 421.024 273.592 420.322 276.209L419.825 278.064C419.13 280.66 418.345 282.681 417.472 284.125C416.599 285.57 415.554 286.504 414.336 286.929C413.144 287.338 411.703 287.317 410.013 286.864ZM411.04 283.031C411.741 283.219 412.316 283.174 412.766 282.897C413.216 282.62 413.638 281.993 414.032 281.017C414.452 280.025 414.927 278.54 415.457 276.562L415.789 275.326C416.319 273.347 416.647 271.834 416.773 270.786C416.926 269.722 416.876 268.958 416.625 268.493C416.374 268.029 415.899 267.702 415.198 267.515C414.518 267.332 413.943 267.377 413.473 267.649C413.023 267.926 412.588 268.56 412.168 269.552C411.773 270.528 411.311 272.006 410.781 273.984L410.45 275.22C409.92 277.198 409.579 278.719 409.426 279.783C409.3 280.831 409.362 281.588 409.613 282.052C409.885 282.523 410.36 282.849 411.04 283.031ZM420.363 285.33C422.167 284.202 423.711 283.18 424.994 282.265C426.283 281.329 427.353 280.467 428.205 279.679C429.062 278.871 429.729 278.111 430.207 277.4C430.685 276.689 431.017 275.983 431.205 275.282C431.498 274.19 431.476 273.323 431.14 272.681C430.804 272.039 430.131 271.582 429.122 271.312C427.803 270.958 426.145 270.923 424.148 271.205L425.225 267.186C426.952 266.921 428.929 267.086 431.154 267.682C433.401 268.284 434.905 269.261 435.669 270.614C436.439 271.947 436.52 273.747 435.912 276.013C435.658 276.961 435.265 277.894 434.732 278.811C434.225 279.713 433.566 280.608 432.754 281.495C431.942 282.381 430.988 283.263 429.892 284.14C428.816 285.022 427.578 285.894 426.176 286.755L426.143 286.879L432.727 288.643L431.733 292.352L419.369 289.04L420.363 285.33ZM441.129 294.87L445.809 277.406L445.747 277.39L437.65 281.15L439.008 276.081L447.176 272.306L451.626 273.499L445.58 296.063L441.129 294.87Z" fill="white"/>
<path d="M477.815 386.649C478.044 385.795 478.921 385.288 479.775 385.517L492.919 389.039C493.773 389.268 494.28 390.145 494.051 390.999L491.412 400.847C491.253 401.444 490.764 401.895 490.157 402.007L482.746 403.376C482.272 403.463 481.784 403.332 481.417 403.019L475.683 398.129C475.214 397.728 475.016 397.093 475.176 396.497L477.815 386.649Z" fill="white"/>
<path d="M502.556 393.278C502.785 392.424 503.663 391.917 504.517 392.146L508.382 393.182C509.236 393.411 509.743 394.289 509.514 395.143L508.686 398.235C508.457 399.089 507.579 399.596 506.725 399.367L502.859 398.331C502.005 398.103 501.498 397.225 501.727 396.371L502.556 393.278Z" fill="white"/>
<path d="M518.019 397.422C518.248 396.568 519.126 396.061 519.98 396.29L533.123 399.811C533.977 400.04 534.484 400.918 534.255 401.772L531.769 411.05C531.541 411.904 530.663 412.411 529.809 412.182L516.665 408.66C515.811 408.431 515.304 407.553 515.533 406.699L518.019 397.422Z" fill="white"/>
<path d="M473.464 402.885C473.693 402.031 474.571 401.524 475.425 401.753L488.569 405.275C489.423 405.504 489.929 406.382 489.701 407.236L487.215 416.514C486.986 417.368 486.108 417.874 485.254 417.646L472.11 414.124C471.256 413.895 470.749 413.017 470.978 412.163L473.464 402.885Z" fill="white"/>
<path d="M495.224 402.086C495.453 401.232 496.33 400.725 497.184 400.954L510.328 404.476C511.182 404.705 511.689 405.583 511.46 406.437L505.659 428.085C505.431 428.939 504.553 429.446 503.699 429.217L490.555 425.695C489.701 425.467 489.194 424.589 489.423 423.735L495.224 402.086Z" fill="white"/>
<path d="M513.669 413.658C513.897 412.804 514.775 412.297 515.629 412.526L528.773 416.048C529.627 416.277 530.134 417.154 529.905 418.008L527.419 427.286C527.19 428.14 526.312 428.647 525.458 428.418L512.314 424.896C511.46 424.668 510.954 423.79 511.183 422.936L513.669 413.658Z" fill="white"/>
<path d="M469.114 419.122C469.343 418.268 470.22 417.761 471.074 417.99L484.218 421.511C485.072 421.74 485.579 422.618 485.35 423.472L482.864 432.75C482.635 433.604 481.757 434.111 480.903 433.882L467.76 430.36C466.906 430.131 466.399 429.253 466.628 428.399L469.114 419.122Z" fill="white"/>
<path d="M492.198 431.936C492.426 431.082 493.304 430.575 494.158 430.804L498.024 431.84C498.878 432.069 499.385 432.947 499.156 433.801L498.327 436.893C498.098 437.747 497.221 438.254 496.367 438.025L492.501 436.989C491.647 436.761 491.14 435.883 491.369 435.029L492.198 431.936Z" fill="white"/>
<path d="M509.471 429.324C509.631 428.728 510.119 428.276 510.726 428.164L518.137 426.796C518.611 426.708 519.099 426.839 519.466 427.152L525.2 432.042C525.669 432.443 525.867 433.078 525.707 433.675L523.068 443.523C522.839 444.377 521.962 444.883 521.108 444.655L507.964 441.133C507.11 440.904 506.603 440.026 506.832 439.172L509.471 429.324Z" fill="white"/>
</g>
<defs>
<filter id="filter0_d_1_61" x="0.183655" y="0.18364" width="650.263" height="506.643" filterUnits="userSpaceOnUse" color-interpolation-filters="sRGB">
<feFlood flood-opacity="0" result="BackgroundImageFix"/>
<feColorMatrix in="SourceAlpha" type="matrix" values="0 0 0 0 0 0 0 0 0 0 0 0 0 0 0 0 0 0 127 0" result="hardAlpha"/>
<feOffset dy="4"/>
<feGaussianBlur stdDeviation="10"/>
<feComposite in2="hardAlpha" operator="out"/>
<feColorMatrix type="matrix" values="0 0 0 0 0 0 0 0 0 0 0 0 0 0 0 0 0 0 0.25 0"/>
<feBlend mode="normal" in2="BackgroundImageFix" result="effect1_dropShadow_1_61"/>
<feBlend mode="normal" in="SourceGraphic" in2="effect1_dropShadow_1_61" result="shape"/>
</filter>
<filter id="filter1_b_1_61" x="-54.8163" y="-58.8164" width="760.263" height="616.643" filterUnits="userSpaceOnUse" color-interpolation-filters="sRGB">
<feFlood flood-opacity="0" result="BackgroundImageFix"/>
<feGaussianBlur in="BackgroundImageFix" stdDeviation="37.5"/>
<feComposite in2="SourceAlpha" operator="in" result="effect1_backgroundBlur_1_61"/>
<feBlend mode="normal" in="SourceGraphic" in2="effect1_backgroundBlur_1_61" result="shape"/>
</filter>
<linearGradient id="paint0_linear_1_61" x1="168.095" y1="34.7861" x2="658.781" y2="357.276" gradientUnits="userSpaceOnUse">
<stop stop-color="white"/>
<stop offset="1" stop-color="white" stop-opacity="0"/>
</linearGradient>
<linearGradient id="paint1_linear_1_61" x1="144.74" y1="25.9586" x2="439.249" y2="358.188" gradientUnits="userSpaceOnUse">
<stop stop-color="white"/>
<stop offset="1" stop-color="white" stop-opacity="0.55"/>
</linearGradient>
</defs>
</svg>
